<?xml version="1.0" encoding="UTF-8" standalone="no"?>
<svg
   width="60.94236"
   height="60.774986"
   viewBox="0 0 91.413539 91.162482"
   version="1.1"
   id="pokerLogo"
   sodipodi:docname="pokerlighthouse-logo-no-chip.svg"
   inkscape:version="1.2.1 (1:1.2.1+202210291243+9c6d41e410)"
   xmlns:inkscape="http://www.inkscape.org/namespaces/inkscape"
   xmlns:sodipodi="http://sodipodi.sourceforge.net/DTD/sodipodi-0.dtd"
   xmlns="http://www.w3.org/2000/svg"
   xmlns:svg="http://www.w3.org/2000/svg">
  <g
     id="g340"
     transform="matrix(1.0395289,0,0,1.0395289,-17.095646,-16.628819)">
    <path
       d="m 97.93673,60.95767 -0.26327,-0.0097 C 96.984088,81.046361 80.497574,96.866091 60.577106,96.866091 a 36.37685,36.37685 0 0 1 -1.295894,-0.0222 C 39.216557,96.155911 23.413681,79.645731 23.415116,59.694415 a 36.351742,36.351742 0 0 1 0.02116,-1.295893 c 0.689374,-20.094067 17.173015,-35.91667 37.093483,-35.91667 0.431486,0 0.864407,0.0082 1.298763,0.02367 20.064656,0.687939 35.867538,17.193818 35.867538,37.144056 a 36.592055,36.592055 0 0 1 -0.0222,1.298763 l 0.26327,0.0097 0.2647,0.0082 a 41.387544,41.387544 0 0 0 0.0226,-1.317056 c 0,-20.235743 -16.027052,-36.974402 -36.377576,-37.673461 a 37.707535,37.707535 0 0 0 -1.317055,-0.02224 c -20.204898,0 -36.921319,16.046416 -37.621812,36.426706 a 37.431355,37.431355 0 0 0 -0.02224,1.314186 c 0,20.235745 16.027048,36.980145 36.377567,37.679194 0.43866,0.0154 0.876961,0.0226 1.314187,0.0226 20.204897,0 36.925269,-16.044979 37.624329,-36.429214 l -0.2647,-0.0082"
       fill="#212323"
       id="path37"
       style="stroke-width:0.358675" />
    <g
       clip-path="url(#H)"
       id="g63"
       style="fill:#2d2d2d"
       transform="matrix(0.36310136,0,0,0.36159851,-7.6443733,-7.9883333)">
      <g
         clip-path="url(#I)"
         id="g61">
        <path
           d="M 196.723,-54.766 -54.711,178.16 177.859,429.945 429.293,197.02 Z m 0,0"
           stroke-width="1.298"
           id="path59" />
      </g>
    </g>
    <path
       d="m 75.214286,50.411898 c -1.84646,-0.06456 -3.937178,0.329264 -5.953292,1.080331 1.580323,-2.547313 2.580669,-5.522883 2.668903,-8.092433 0.204445,-5.974096 -4.466584,-10.987301 -10.433865,-11.19318 -5.967281,-0.20301 -10.970443,4.477702 -11.173453,10.450722 -0.08823,2.568116 0.703362,5.608606 2.107217,8.256706 -1.958726,-0.884135 -4.018239,-1.422148 -5.865058,-1.48384 -5.967282,-0.205879 -10.971878,4.472323 -11.176323,10.447853 -0.204445,5.975531 4.466584,10.985866 10.435299,11.191746 4.29442,0.148491 9.915579,-2.173214 12.801481,-5.713698 l -0.295549,1.835342 -0.907807,5.360402 A 223.31699,223.31699 0 0 1 55.40716,82.580771 c -0.619432,2.73203 -1.122295,4.54944 -1.122295,4.54944 l 10.967573,0.3784 c 0,0 -0.376967,-1.84933 -0.807019,-4.61795 A 216.80488,216.80488 0 0 1 63.121548,72.749838 c -0.228476,-1.84395 -0.371228,-3.686106 -0.539447,-5.410976 l -0.130199,-1.381617 c 2.751757,3.478792 7.914529,5.955804 12.022796,6.09748 5.965846,0.20588 10.96901,-4.473757 11.17345,-10.449287 0.20445,-5.975531 -4.465146,-10.987301 -10.433862,-11.193181"
       fill="#ffffff"
       id="path69"
       style="stroke-width:0.358675" />
    <path
       d="m 60.158532,20.770612 -1.907436,0.04699 -1.901696,0.142035 -1.892371,0.234215 -1.879817,0.328188 -1.860808,0.420368 -1.837493,0.511471 -1.811311,0.601139 -1.779747,0.689374 -1.742803,0.777608 -1.70299,0.861538 -1.660667,0.945469 -1.611169,1.025452 -1.559162,1.104003 -1.502849,1.180042 -1.445103,1.251776 -1.3809,1.322078 -1.314904,1.388073 -1.244962,1.452994 -1.173586,1.51074 -1.098263,1.567411 -1.020073,1.619778 -0.940805,1.669275 -0.856876,1.711957 -0.773304,1.752129 -0.685428,1.789431 -0.597912,1.820995 -0.508601,1.847177 -0.418216,1.870492 -0.326394,1.88986 -0.233139,1.902414 -0.141318,1.912098 -0.04663,1.917479 0.04663,1.916043 0.141318,1.912098 0.233139,1.903849 0.326394,1.888425 0.418216,1.870492 0.508601,1.848612 0.597912,1.81956 0.685428,1.789431 0.773304,1.752129 0.856876,1.713392 0.940805,1.667839 1.020073,1.61978 1.098263,1.56741 1.173586,1.51217 1.244962,1.45156 1.314904,1.38807 1.3809,1.32208 1.445103,1.25321 1.502849,1.17861 1.559162,1.104 1.611169,1.02546 1.660667,0.94546 1.70299,0.86154 1.742803,0.77761 1.779747,0.69045 1.811311,0.601139 1.837493,0.51147 1.860808,0.41893 1.879817,0.32819 1.892371,0.23565 1.901696,0.1406 1.907436,0.047 1.906,-0.047 1.901697,-0.1406 1.893447,-0.23565 1.878382,-0.32819 1.860808,-0.41893 1.838928,-0.51147 1.809876,-0.602569 1.779747,-0.68938 1.742803,-0.77761 1.704425,-0.86153 1.659232,-0.94547 1.611171,-1.02546 1.55916,-1.104 1.50428,-1.17861 1.44403,-1.25321 1.3809,-1.32207 1.3149,-1.38808 1.2464,-1.45156 1.17251,-1.51217 1.09826,-1.56741 1.02008,-1.61978 0.9408,-1.667838 0.85688,-1.713391 0.7733,-1.752129 0.68687,-1.789431 0.597912,-1.81956 0.5086,-1.848613 0.41678,-1.870492 0.32639,-1.888425 0.23458,-1.903849 0.13988,-1.912098 0.0466,-1.916043 -0.0466,-1.917478 -0.13988,-1.912098 -0.23458,-1.902414 -0.32639,-1.88986 -0.41678,-1.870492 -0.5086,-1.847178 -0.599352,-1.820995 -0.68543,-1.789431 -0.7733,-1.752129 -0.85688,-1.711957 -0.9408,-1.669275 -1.02008,-1.619777 -1.09826,-1.567411 -1.17251,-1.510741 -1.2464,-1.452994 -1.3149,-1.388073 -1.3809,-1.322077 -1.44403,-1.251777 -1.50428,-1.180042 -1.55916,-1.104002 -1.611171,-1.025453 -1.659232,-0.945468 -1.704425,-0.861538 -1.742803,-0.777608 -1.779747,-0.689374 -1.809876,-0.60114 -1.838928,-0.511471 -1.860808,-0.420368 -1.878382,-0.328187 -1.893447,-0.234215 -1.901697,-0.142036 -1.906,-0.04699 z m 0,0"
       fill="#2d2d2d"
       id="insideCircle"
       style="stroke-width:0.358675" />
    <path
       id="firstBlock"
       style="display:inline;fill:#ffffff;fill-opacity:1;stroke-width:0.358675"
       d="m 45.009521,78.520206 -1.311316,9.054755 h 24.028376 l -1.312035,-9.054755 z" />
    <path
       style="display:inline;fill:#ffffff;fill-opacity:1;stroke-width:0.358675"
       d="M 45.352415,76.155819 H 66.071653 L 65.044765,69.062656 H 46.381096 Z"
       id="secondBlock" />
    <path
       style="display:inline;fill:#ffffff;fill-opacity:1;stroke-width:0.358675"
       d="m 47.750159,59.606899 -1.026887,7.093163 H 64.702231 L 63.67355,59.606899 Z"
       id="thirdBlock" />
    <path
       style="fill:#ffffff;fill-opacity:1;stroke-width:0.358675"
       d="M 49.635357,46.60456 48.094129,57.244304 H 63.331374 L 61.790146,46.60456 Z"
       id="forthBlock" />
    <path
       d="m 64.491688,31.346154 a 9.4675934,9.4675934 0 0 0 -17.557156,0 z m 0,0"
       id="fiftBlock"
       style="display:inline;fill:#ffffff;fill-opacity:1;stroke-width:0.473624" />
    <path
       style="opacity:1;fill:none;fill-opacity:1;stroke:#45ca63;stroke-width:6.16025;stroke-linecap:round;stroke-linejoin:miter;stroke-miterlimit:4;stroke-dasharray:none;stroke-opacity:1"
       d="m 41.024997,38.953657 c 4.921026,-0.06707 9.84241,-0.116569 14.764152,-0.148133 3.837826,-0.02439 7.687488,-0.0373 11.499131,0.413553 4.144134,0.48995 8.400175,1.621212 11.49913,4.417086 1.160673,1.046973 2.137705,2.322423 2.702258,3.780079 0.86441,2.231319 0.69978,4.795489 -0.236007,6.997756 -0.936142,2.202266 -2.601113,4.051596 -4.568088,5.414562 a 14.889688,14.889688 0 0 1 -1.741369,1.040517 c -3.278292,1.662819 -7.054067,1.990648 -10.725826,2.165323 -2.439351,0.116211 -4.881571,0.177903 -7.32415,0.185435"
       id="greenLight" />
    <ellipse
       style="fill:none;fill-opacity:1;fill-rule:evenodd;stroke:#ffffff;stroke-width:1.68148;stroke-linecap:round;stroke-opacity:1;paint-order:stroke markers fill"
       id="whiteInnerRing"
       cx="60.37553"
       cy="59.825687"
       rx="39.559376"
       ry="39.733692" />
  </g>
  <sodipodi:namedview
     id="namedview45"
     pagecolor="#ffffff"
     bordercolor="#666666"
     borderopacity="1.0"
     inkscape:pageshadow="2"
     inkscape:pageopacity="0.0"
     inkscape:pagecheckerboard="0"
     showgrid="false"
     lock-margins="true"
     fit-margin-top="0"
     fit-margin-left="0"
     fit-margin-right="0"
     fit-margin-bottom="0"
     inkscape:zoom="2.876"
     inkscape:cx="57.892907"
     inkscape:cy="102.22531"
     inkscape:window-width="1920"
     inkscape:window-height="1043"
     inkscape:window-x="1920"
     inkscape:window-y="0"
     inkscape:window-maximized="1"
     inkscape:current-layer="pokerLogo"
     inkscape:showpageshadow="2"
     inkscape:deskcolor="#d1d1d1" />
  <defs
     id="defs35">
    <clipPath
       id="A">
      <path
         d="m 23.141,23.758 h 328.5 v 327.75 h -328.5 z m 0,0"
         id="path2" />
    </clipPath>
    <clipPath
       id="B">
      <path
         d="M 34.441,34.371 H 340 V 340.629 H 34.441 Z m 0,0"
         id="path5" />
    </clipPath>
    <clipPath
       id="C">
      <path
         d="m 187.441,340.336 a 156.69,156.69 0 0 1 -5.238,-0.086 l -2.621,-0.117 a 153.43,153.43 0 0 1 -19.902,-2.336 l 1.094,-31.898 a 121.75,121.75 0 0 0 22.512,2.879 l 4.227,0.074 a 121.12,121.12 0 0 0 18.43,-1.406 l -1.094,31.898 a 153.49,153.49 0 0 1 -17.406,0.992 m 79.172,-22.184 -22.031,-23.633 a 121.691,121.691 0 0 0 35.234,-28.531 l 21.57,23.141 a 153.48,153.48 0 0 1 -34.773,29.023 M 99.508,312.41 A 153.61,153.61 0 0 1 66.805,281.062 l 23.098,-21.598 a 121.85,121.85 0 0 0 33.203,30.883 L 99.508,312.41 m 235.227,-85.066 -32.488,-1.121 c 3.645,-10.863 5.797,-22.437 6.207,-34.48 a 120.93,120.93 0 0 0 -0.09,-10.594 l 31.504,1.086 a 152.81,152.81 0 0 1 0.074,8.035 l -0.066,2.555 a 154.08,154.08 0 0 1 -3.395,27.344 150.362,150.362 0 0 1 -1.746,7.176 M 70.25,218.25 37.758,217.133 a 153.19,153.19 0 0 1 -2.848,-28.5 v -0.035 a 159.37,159.37 0 0 1 0.094,-6.25 155.01,155.01 0 0 1 0.727,-10.57 l 31.508,1.086 c -0.422,3.477 -0.695,7 -0.82,10.566 -0.414,12.035 0.941,23.734 3.832,34.82 M 294.22,130.359 A 121.836,121.836 0 0 0 265.728,95.074 l 23.105,-21.602 a 153.98,153.98 0 0 1 28.988,34.824 l -23.602,22.063 M 84.824,123.168 62.789,99.539 A 153.71,153.71 0 0 1 94.098,66.781 l 21.566,23.137 a 121.875,121.875 0 0 0 -30.84,33.25 M 214.101,69.281 a 122.07,122.07 0 0 0 -22.512,-2.883 128.09,128.09 0 0 0 -4.234,-0.07 121.48,121.48 0 0 0 -18.422,1.402 l 1.094,-31.91 c 5.703,-0.648 11.496,-0.98 17.363,-0.98 a 159.03,159.03 0 0 1 5.277,0.086 l 5.035,0.258 a 153.19,153.19 0 0 1 17.492,2.191 L 214.1,69.281"
         id="path8" />
    </clipPath>
    <clipPath
       id="D">
      <path
         d="m 187.441,340.336 a 156.69,156.69 0 0 1 -5.238,-0.086 l -2.621,-0.117 a 153.43,153.43 0 0 1 -19.902,-2.336 l 1.094,-31.898 a 121.75,121.75 0 0 0 22.512,2.879 l 4.227,0.074 a 121.12,121.12 0 0 0 18.43,-1.406 l -1.094,31.898 a 153.49,153.49 0 0 1 -17.406,0.992 m 79.172,-22.184 -22.031,-23.633 a 121.691,121.691 0 0 0 35.234,-28.531 l 21.57,23.141 a 153.48,153.48 0 0 1 -34.773,29.023 M 99.508,312.41 A 153.61,153.61 0 0 1 66.805,281.062 l 23.098,-21.598 a 121.85,121.85 0 0 0 33.203,30.883 L 99.508,312.41 m 235.227,-85.066 -32.488,-1.121 c 3.645,-10.863 5.797,-22.437 6.207,-34.48 a 120.93,120.93 0 0 0 -0.09,-10.594 l 31.504,1.086 a 152.81,152.81 0 0 1 0.074,8.035 l -0.066,2.555 a 154.08,154.08 0 0 1 -3.395,27.344 150.362,150.362 0 0 1 -1.746,7.176 M 70.25,218.25 37.758,217.133 a 153.19,153.19 0 0 1 -2.848,-28.5 v -0.035 a 159.37,159.37 0 0 1 0.094,-6.25 155.01,155.01 0 0 1 0.727,-10.57 l 31.508,1.086 c -0.422,3.477 -0.695,7 -0.82,10.566 -0.414,12.035 0.941,23.734 3.832,34.82 M 294.22,130.359 A 121.836,121.836 0 0 0 265.728,95.074 l 23.105,-21.602 a 153.98,153.98 0 0 1 28.988,34.824 l -23.602,22.063 M 84.824,123.168 62.789,99.539 A 153.71,153.71 0 0 1 94.098,66.781 l 21.566,23.137 a 121.875,121.875 0 0 0 -30.84,33.25 M 214.101,69.281 a 122.07,122.07 0 0 0 -22.512,-2.883 128.09,128.09 0 0 0 -4.234,-0.07 121.48,121.48 0 0 0 -18.422,1.402 l 1.094,-31.91 c 5.703,-0.648 11.496,-0.98 17.363,-0.98 a 159.03,159.03 0 0 1 5.277,0.086 l 5.035,0.258 a 153.19,153.19 0 0 1 17.492,2.191 L 214.1,69.281"
         id="path11" />
    </clipPath>
    <clipPath
       id="E">
      <path
         d="m 199.305,-117.465 -316.469,293.176 292.75,316.93 316.465,-293.176 z m 0,0"
         id="path14" />
    </clipPath>
    <clipPath
       id="F">
      <path
         d="M 66,66 H 308.863 V 309 H 66 Z m 0,0"
         id="path17" />
    </clipPath>
    <clipPath
       id="G">
      <path
         d="m 187.512,308.852 c -1.402,0 -2.809,-0.027 -4.227,-0.074 A 121.75,121.75 0 0 1 160.773,305.899 120.38,120.38 0 0 1 123.105,290.348 121.85,121.85 0 0 1 89.902,259.465 121.07,121.07 0 0 1 70.25,218.25 c -2.891,-11.086 -4.246,-22.785 -3.832,-34.82 0.125,-3.566 0.398,-7.09 0.82,-10.566 a 120.693,120.693 0 0 1 17.586,-49.695 121.875,121.875 0 0 1 30.84,-33.25 c 15.414,-11.371 33.594,-19.164 53.27,-22.187 a 121.48,121.48 0 0 1 18.422,-1.402 128.09,128.09 0 0 1 4.234,0.07 122.07,122.07 0 0 1 22.512,2.883 c 19.422,4.367 37.023,13.387 51.625,25.793 a 121.85,121.85 0 0 1 28.492,35.285 120.632,120.632 0 0 1 14.145,50.789 c 0.184,3.496 0.215,7.035 0.09,10.594 -0.41,12.043 -2.562,23.617 -6.207,34.48 -4.937,14.754 -12.621,28.195 -22.43,39.766 a 121.659,121.659 0 0 1 -35.234,28.531 120.15,120.15 0 0 1 -38.641,12.926 121.12,121.12 0 0 1 -18.43,1.406 M 187.371,76.166 c -59.687,0 -109.07,47.402 -111.133,107.602 -2.109,61.504 45.969,113.074 107.383,115.18 a 107.57,107.57 0 0 0 3.883,0.066 c 59.684,0 109.07,-47.406 111.133,-107.605 C 300.746,129.913 252.664,78.347 191.254,76.233 a 117.56,117.56 0 0 0 -3.883,-0.066"
         id="path20" />
    </clipPath>
    <clipPath
       id="H">
      <path
         d="m 187.512,308.852 c -1.402,0 -2.809,-0.027 -4.227,-0.074 A 121.75,121.75 0 0 1 160.773,305.899 120.38,120.38 0 0 1 123.105,290.348 121.85,121.85 0 0 1 89.902,259.465 121.07,121.07 0 0 1 70.25,218.25 c -2.891,-11.086 -4.246,-22.785 -3.832,-34.82 0.125,-3.566 0.398,-7.09 0.82,-10.566 a 120.693,120.693 0 0 1 17.586,-49.695 121.875,121.875 0 0 1 30.84,-33.25 c 15.414,-11.371 33.594,-19.164 53.27,-22.187 a 121.48,121.48 0 0 1 18.422,-1.402 128.09,128.09 0 0 1 4.234,0.07 122.07,122.07 0 0 1 22.512,2.883 c 19.422,4.367 37.023,13.387 51.625,25.793 a 121.85,121.85 0 0 1 28.492,35.285 120.632,120.632 0 0 1 14.145,50.789 c 0.184,3.496 0.215,7.035 0.09,10.594 -0.41,12.043 -2.562,23.617 -6.207,34.48 -4.937,14.754 -12.621,28.195 -22.43,39.766 a 121.659,121.659 0 0 1 -35.234,28.531 120.15,120.15 0 0 1 -38.641,12.926 121.12,121.12 0 0 1 -18.43,1.406 M 187.371,76.166 c -59.687,0 -109.07,47.402 -111.133,107.602 -2.109,61.504 45.969,113.074 107.383,115.18 a 107.57,107.57 0 0 0 3.883,0.066 c 59.684,0 109.07,-47.406 111.133,-107.605 C 300.746,129.913 252.664,78.347 191.254,76.233 a 117.56,117.56 0 0 0 -3.883,-0.066"
         id="path23" />
    </clipPath>
    <clipPath
       id="I">
      <path
         d="M 196.723,-54.766 -54.711,178.16 177.859,429.945 429.293,197.015 Z m 0,0"
         id="path26" />
    </clipPath>
    <clipPath
       id="J">
      <path
         d="m 157,129.16 h 38 V 142 h -38 z m 0,0"
         id="path29" />
    </clipPath>
    <clipPath
       id="K">
      <path
         d="m 100.727,238 h 150 v 20.16 h -150 z m 0,0"
         id="path32" />
    </clipPath>
  </defs>
</svg>
