<?xml version="1.0" encoding="UTF-8" standalone="no"?>
<svg
   width="25.000002"
   height="25.107901"
   viewBox="1 1 37.500002 37.661852"
   version="1.1"
   id="pokerLogo"
   sodipodi:docname="pokerlighthouse-logo-25x25.svg"
   inkscape:version="1.1.2 (08b2f3d93c, 2022-04-05)"
   xmlns:inkscape="http://www.inkscape.org/namespaces/inkscape"
   xmlns:sodipodi="http://sodipodi.sourceforge.net/DTD/sodipodi-0.dtd"
   xmlns="http://www.w3.org/2000/svg"
   xmlns:svg="http://www.w3.org/2000/svg">
  <sodipodi:namedview
     id="namedview45"
     pagecolor="#ffffff"
     bordercolor="#666666"
     borderopacity="1.0"
     inkscape:pageshadow="2"
     inkscape:pageopacity="0.0"
     inkscape:pagecheckerboard="0"
     showgrid="false"
     lock-margins="true"
     fit-margin-top="0"
     fit-margin-left="0"
     fit-margin-right="0"
     fit-margin-bottom="0"
     inkscape:zoom="1.0168196"
     inkscape:cx="-253.24061"
     inkscape:cy="-113.09775"
     inkscape:window-width="1920"
     inkscape:window-height="1043"
     inkscape:window-x="1920"
     inkscape:window-y="0"
     inkscape:window-maximized="1"
     inkscape:current-layer="pokerLogo" />
  <defs
     id="defs35">
    <inkscape:path-effect
       effect="bspline"
       id="path-effect1181"
       is_visible="true"
       lpeversion="1"
       weight="33.333333"
       steps="2"
       helper_size="0"
       apply_no_weight="true"
       apply_with_weight="true"
       only_selected="false" />
    <clipPath
       id="A">
      <path
         d="m 23.141,23.758 h 328.5 v 327.75 h -328.5 z m 0,0"
         id="path2" />
    </clipPath>
    <clipPath
       id="B">
      <path
         d="M 34.441,34.371 H 340 V 340.629 H 34.441 Z m 0,0"
         id="path5" />
    </clipPath>
    <clipPath
       id="C">
      <path
         d="m 187.441,340.336 a 156.69,156.69 0 0 1 -5.238,-0.086 l -2.621,-0.117 a 153.43,153.43 0 0 1 -19.902,-2.336 l 1.094,-31.898 a 121.75,121.75 0 0 0 22.512,2.879 l 4.227,0.074 a 121.12,121.12 0 0 0 18.43,-1.406 l -1.094,31.898 a 153.49,153.49 0 0 1 -17.406,0.992 m 79.172,-22.184 -22.031,-23.633 a 121.691,121.691 0 0 0 35.234,-28.531 l 21.57,23.141 a 153.48,153.48 0 0 1 -34.773,29.023 M 99.508,312.41 A 153.61,153.61 0 0 1 66.805,281.062 l 23.098,-21.598 a 121.85,121.85 0 0 0 33.203,30.883 L 99.508,312.41 m 235.227,-85.066 -32.488,-1.121 c 3.645,-10.863 5.797,-22.437 6.207,-34.48 a 120.93,120.93 0 0 0 -0.09,-10.594 l 31.504,1.086 a 152.81,152.81 0 0 1 0.074,8.035 l -0.066,2.555 a 154.08,154.08 0 0 1 -3.395,27.344 150.362,150.362 0 0 1 -1.746,7.176 M 70.25,218.25 37.758,217.133 a 153.19,153.19 0 0 1 -2.848,-28.5 v -0.035 a 159.37,159.37 0 0 1 0.094,-6.25 155.01,155.01 0 0 1 0.727,-10.57 l 31.508,1.086 c -0.422,3.477 -0.695,7 -0.82,10.566 -0.414,12.035 0.941,23.734 3.832,34.82 M 294.22,130.359 A 121.836,121.836 0 0 0 265.728,95.074 l 23.105,-21.602 a 153.98,153.98 0 0 1 28.988,34.824 l -23.602,22.063 M 84.824,123.168 62.789,99.539 A 153.71,153.71 0 0 1 94.098,66.781 l 21.566,23.137 a 121.875,121.875 0 0 0 -30.84,33.25 M 214.101,69.281 a 122.07,122.07 0 0 0 -22.512,-2.883 128.09,128.09 0 0 0 -4.234,-0.07 121.48,121.48 0 0 0 -18.422,1.402 l 1.094,-31.91 c 5.703,-0.648 11.496,-0.98 17.363,-0.98 a 159.03,159.03 0 0 1 5.277,0.086 l 5.035,0.258 a 153.19,153.19 0 0 1 17.492,2.191 L 214.1,69.281"
         id="path8" />
    </clipPath>
    <clipPath
       id="D">
      <path
         d="m 187.441,340.336 a 156.69,156.69 0 0 1 -5.238,-0.086 l -2.621,-0.117 a 153.43,153.43 0 0 1 -19.902,-2.336 l 1.094,-31.898 a 121.75,121.75 0 0 0 22.512,2.879 l 4.227,0.074 a 121.12,121.12 0 0 0 18.43,-1.406 l -1.094,31.898 a 153.49,153.49 0 0 1 -17.406,0.992 m 79.172,-22.184 -22.031,-23.633 a 121.691,121.691 0 0 0 35.234,-28.531 l 21.57,23.141 a 153.48,153.48 0 0 1 -34.773,29.023 M 99.508,312.41 A 153.61,153.61 0 0 1 66.805,281.062 l 23.098,-21.598 a 121.85,121.85 0 0 0 33.203,30.883 L 99.508,312.41 m 235.227,-85.066 -32.488,-1.121 c 3.645,-10.863 5.797,-22.437 6.207,-34.48 a 120.93,120.93 0 0 0 -0.09,-10.594 l 31.504,1.086 a 152.81,152.81 0 0 1 0.074,8.035 l -0.066,2.555 a 154.08,154.08 0 0 1 -3.395,27.344 150.362,150.362 0 0 1 -1.746,7.176 M 70.25,218.25 37.758,217.133 a 153.19,153.19 0 0 1 -2.848,-28.5 v -0.035 a 159.37,159.37 0 0 1 0.094,-6.25 155.01,155.01 0 0 1 0.727,-10.57 l 31.508,1.086 c -0.422,3.477 -0.695,7 -0.82,10.566 -0.414,12.035 0.941,23.734 3.832,34.82 M 294.22,130.359 A 121.836,121.836 0 0 0 265.728,95.074 l 23.105,-21.602 a 153.98,153.98 0 0 1 28.988,34.824 l -23.602,22.063 M 84.824,123.168 62.789,99.539 A 153.71,153.71 0 0 1 94.098,66.781 l 21.566,23.137 a 121.875,121.875 0 0 0 -30.84,33.25 M 214.101,69.281 a 122.07,122.07 0 0 0 -22.512,-2.883 128.09,128.09 0 0 0 -4.234,-0.07 121.48,121.48 0 0 0 -18.422,1.402 l 1.094,-31.91 c 5.703,-0.648 11.496,-0.98 17.363,-0.98 a 159.03,159.03 0 0 1 5.277,0.086 l 5.035,0.258 a 153.19,153.19 0 0 1 17.492,2.191 L 214.1,69.281"
         id="path11" />
    </clipPath>
    <clipPath
       id="E">
      <path
         d="m 199.305,-117.465 -316.469,293.176 292.75,316.93 316.465,-293.176 z m 0,0"
         id="path14" />
    </clipPath>
    <clipPath
       id="F">
      <path
         d="M 66,66 H 308.863 V 309 H 66 Z m 0,0"
         id="path17" />
    </clipPath>
    <clipPath
       id="G">
      <path
         d="m 187.512,308.852 c -1.402,0 -2.809,-0.027 -4.227,-0.074 A 121.75,121.75 0 0 1 160.773,305.899 120.38,120.38 0 0 1 123.105,290.348 121.85,121.85 0 0 1 89.902,259.465 121.07,121.07 0 0 1 70.25,218.25 c -2.891,-11.086 -4.246,-22.785 -3.832,-34.82 0.125,-3.566 0.398,-7.09 0.82,-10.566 a 120.693,120.693 0 0 1 17.586,-49.695 121.875,121.875 0 0 1 30.84,-33.25 c 15.414,-11.371 33.594,-19.164 53.27,-22.187 a 121.48,121.48 0 0 1 18.422,-1.402 128.09,128.09 0 0 1 4.234,0.07 122.07,122.07 0 0 1 22.512,2.883 c 19.422,4.367 37.023,13.387 51.625,25.793 a 121.85,121.85 0 0 1 28.492,35.285 120.632,120.632 0 0 1 14.145,50.789 c 0.184,3.496 0.215,7.035 0.09,10.594 -0.41,12.043 -2.562,23.617 -6.207,34.48 -4.937,14.754 -12.621,28.195 -22.43,39.766 a 121.659,121.659 0 0 1 -35.234,28.531 120.15,120.15 0 0 1 -38.641,12.926 121.12,121.12 0 0 1 -18.43,1.406 M 187.371,76.166 c -59.687,0 -109.07,47.402 -111.133,107.602 -2.109,61.504 45.969,113.074 107.383,115.18 a 107.57,107.57 0 0 0 3.883,0.066 c 59.684,0 109.07,-47.406 111.133,-107.605 C 300.746,129.913 252.664,78.347 191.254,76.233 a 117.56,117.56 0 0 0 -3.883,-0.066"
         id="path20" />
    </clipPath>
    <clipPath
       id="H">
      <path
         d="m 187.512,308.852 c -1.402,0 -2.809,-0.027 -4.227,-0.074 A 121.75,121.75 0 0 1 160.773,305.899 120.38,120.38 0 0 1 123.105,290.348 121.85,121.85 0 0 1 89.902,259.465 121.07,121.07 0 0 1 70.25,218.25 c -2.891,-11.086 -4.246,-22.785 -3.832,-34.82 0.125,-3.566 0.398,-7.09 0.82,-10.566 a 120.693,120.693 0 0 1 17.586,-49.695 121.875,121.875 0 0 1 30.84,-33.25 c 15.414,-11.371 33.594,-19.164 53.27,-22.187 a 121.48,121.48 0 0 1 18.422,-1.402 128.09,128.09 0 0 1 4.234,0.07 122.07,122.07 0 0 1 22.512,2.883 c 19.422,4.367 37.023,13.387 51.625,25.793 a 121.85,121.85 0 0 1 28.492,35.285 120.632,120.632 0 0 1 14.145,50.789 c 0.184,3.496 0.215,7.035 0.09,10.594 -0.41,12.043 -2.562,23.617 -6.207,34.48 -4.937,14.754 -12.621,28.195 -22.43,39.766 a 121.659,121.659 0 0 1 -35.234,28.531 120.15,120.15 0 0 1 -38.641,12.926 121.12,121.12 0 0 1 -18.43,1.406 M 187.371,76.166 c -59.687,0 -109.07,47.402 -111.133,107.602 -2.109,61.504 45.969,113.074 107.383,115.18 a 107.57,107.57 0 0 0 3.883,0.066 c 59.684,0 109.07,-47.406 111.133,-107.605 C 300.746,129.913 252.664,78.347 191.254,76.233 a 117.56,117.56 0 0 0 -3.883,-0.066"
         id="path23" />
    </clipPath>
    <clipPath
       id="I">
      <path
         d="M 196.723,-54.766 -54.711,178.16 177.859,429.945 429.293,197.015 Z m 0,0"
         id="path26" />
    </clipPath>
    <clipPath
       id="J">
      <path
         d="m 157,129.16 h 38 V 142 h -38 z m 0,0"
         id="path29" />
    </clipPath>
    <clipPath
       id="K">
      <path
         d="m 100.727,238 h 150 v 20.16 h -150 z m 0,0"
         id="path32" />
    </clipPath>
  </defs>
  <path
     d="m 31.605228,20.04927 -0.08227,-0.003 c -0.215429,6.280747 -5.367464,11.224412 -11.59261,11.224412 a 11.367765,11.367765 0 0 1 -0.404967,-0.0069 C 13.255175,31.04872 8.3167765,25.889289 8.3172249,19.654503 a 11.359919,11.359919 0 0 1 0.00661,-0.404966 C 8.5392668,12.970141 13.690404,8.025578 19.91555,8.025578 c 0.134839,0 0.270127,0.00256 0.405864,0.0074 6.270204,0.2149809 11.208605,5.373067 11.208605,11.607517 a 11.435017,11.435017 0 0 1 -0.0069,0.405863 l 0.08227,0.003 0.08272,0.0026 a 12.933607,12.933607 0 0 0 0.0071,-0.41158 c 0,-6.32367 -5.008453,-11.5544999 -11.367992,-11.7729559 a 11.783604,11.783604 0 0 0 -0.411579,-0.00695 c -6.314031,0 -11.5379118,5.0145049 -11.7568159,11.3833449 a 11.697298,11.697298 0 0 0 -0.00695,0.410683 c 0,6.32367 5.0084519,11.556295 11.3679889,11.774747 0.137081,0.0048 0.27405,0.0071 0.410683,0.0071 6.31403,0 11.539146,-5.014056 11.757603,-11.384129 l -0.08272,-0.0026"
     fill="#212323"
     id="path37"
     style="stroke-width:0.112086" />
  <path
     d="m 19.930346,36.746054 c -0.198841,0 -0.397681,-0.0035 -0.597755,-0.01009 l 0.587107,0.0096 a 17.204084,17.204084 0 0 0 1.950969,-0.111187 l 0.122622,-3.575322 a 13.468033,13.468033 0 0 0 4.331116,-1.448825 l 2.469369,2.648931 a 17.200498,17.200498 0 0 0 3.897566,-3.253074 l -2.417694,-2.593782 a 13.533043,13.533043 0 0 0 2.514088,-4.457213 l 3.641453,0.125537 a 16.85348,16.85348 0 0 0 0.1957,-0.804218 c -1.678712,7.744472 -8.564044,13.469603 -16.694653,13.469603 m -0.89142,-0.02322 C 11.071963,36.31396 4.620852,30.483245 3.1423251,22.93627 l 3.6418993,0.1252 a 13.570256,13.570256 0 0 0 2.2027146,4.619625 l -2.588963,2.420834 a 17.217535,17.217535 0 0 0 3.665549,3.513672 l 2.645006,-2.47284 a 13.492916,13.492916 0 0 0 4.222057,1.742937 l -0.122622,3.575431 a 17.197359,17.197359 0 0 0 2.230736,0.261834 m 17.974116,-16.79766 a 17.131229,17.131229 0 0 0 -0.0083,-0.900611 l -3.531172,-0.121725 a 13.517911,13.517911 0 0 0 -1.585456,-5.69285 l 2.645472,-2.472729 A 17.259007,17.259007 0 0 0 31.284212,6.8341037 L 28.694465,9.2553861 C 27.057784,7.8648468 25.084958,6.8538309 22.908023,6.3643509 L 23.030646,2.7881341 A 17.148378,17.148378 0 0 0 21.070037,2.5425535 C 30.140262,3.1498357 37.17579,10.790964 37.012931,19.925527 M 2.8231038,19.737895 a 17.865392,17.865392 0 0 1 0.010538,-0.700537 C 3.1501723,9.7875705 10.7375,2.503772 19.908378,2.5033235 c 0.198729,0 0.39757,0.00336 0.597195,0.010088 a 17.826162,17.826162 0 0 0 -0.591478,-0.00964 c -0.657609,0 -1.306923,0.037212 -1.94615,0.1098444 L 17.845322,6.1902816 C 15.639917,6.5291175 13.602305,7.402604 11.874499,8.6772461 L 9.4572517,6.0839119 A 17.228744,17.228744 0 0 0 5.9479504,9.7555139 L 8.4177662,12.403994 A 13.528672,13.528672 0 0 0 6.4466213,17.974109 L 2.9150145,17.852384 a 17.374455,17.374455 0 0 0 -0.081487,1.184749 17.871445,17.871445 0 0 0 -0.010537,0.700538"
     id="greenDecor"
     style="fill:#45ca63;fill-opacity:1;stroke-width:0.112086" />
  <path
     d="m 19.899186,37.943132 c -0.211282,0 -0.424918,-0.0034 -0.6362,-0.01088 -2.460737,-0.0844 -4.832141,-0.648978 -7.047746,-1.677031 C 10.075967,35.262254 8.1714009,33.88057 6.5547841,32.149513 4.9380554,30.41857 3.6910981,28.423214 2.8470904,26.220389 1.9734917,23.939216 1.572672,21.534971 1.657297,19.074122 1.8209426,14.315285 3.797804,9.8743251 7.2246103,6.5694684 10.64301,3.2727941 15.136763,1.456552 19.877329,1.456552 c 0.210946,0 0.425143,0.00392 0.636761,0.011322 2.460737,0.084401 4.831692,0.6484175 7.047634,1.6766949 2.139385,0.9928579 4.043951,2.3742062 5.66012,4.1057112 1.616281,1.7312808 2.864134,3.725852 3.707693,5.928678 0.8736,2.281175 1.273859,4.68542 1.189794,7.146157 -0.16331,4.759397 -2.140506,9.200355 -5.567312,12.505214 -3.418401,3.297122 -7.912154,5.112915 -12.652833,5.112915 m -0.594392,-1.24595 c 0.198953,0.0065 0.396785,0.01 0.594392,0.01 8.087679,0 14.936811,-5.687021 16.606554,-13.379821 a 17.178977,17.155103 0 0 0 0.378516,-3.044481 l 0.0073,-0.284474 C 37.053618,10.924795 30.05519,3.3346656 21.032936,2.7314185 A 18.65784,18.65784 0 0 0 20.471497,2.7026123 C 20.272993,2.6961123 20.075161,2.6925248 19.877441,2.6925248 10.755096,2.6930873 3.2077831,9.9283504 2.8930457,19.11649 c -0.00829,0.233139 -0.011431,0.464933 -0.010538,0.69583 v 0.0039 c 0.00695,1.083312 0.1154488,2.144206 0.3175396,3.173156 1.4705689,7.49665 7.8877187,13.288584 15.8124237,13.694671 l 0.292321,0.01313"
     fill="#2d2d2d"
     id="path45"
     style="stroke-width:0.111417" />
  <g
     clip-path="url(#D)"
     id="g53"
     style="fill:#2d2d2d"
     transform="matrix(0.1121331,0,0,0.1121331,-1.0874657,-1.3757497)">
    <g
       clip-path="url(#E)"
       id="g51">
      <path
         d="m 199.305,-117.465 -316.469,293.176 292.746,316.93 316.469,-293.176 z m 0,0"
         id="path49" />
    </g>
  </g>
  <g
     clip-path="url(#H)"
     id="g63"
     style="fill:#2d2d2d"
     transform="matrix(0.11346917,0,0,0.11299953,-1.388865,-1.4963544)">
    <g
       clip-path="url(#I)"
       id="g61">
      <path
         d="M 196.723,-54.766 -54.711,178.16 177.859,429.945 429.293,197.02 Z m 0,0"
         stroke-width="1.298"
         id="path59" />
    </g>
  </g>
  <path
     d="m 24.504465,16.753717 c -0.577019,-0.02018 -1.230368,0.102895 -1.860404,0.337603 0.493851,-0.796035 0.806459,-1.725901 0.834032,-2.528885 0.06389,-1.866905 -1.395807,-3.433531 -3.260583,-3.497869 -1.864775,-0.06344 -3.428263,1.399282 -3.491703,3.265851 -0.02757,0.802536 0.2198,1.752689 0.658505,2.58022 -0.612102,-0.276292 -1.2557,-0.444421 -1.832831,-0.4637 -1.864775,-0.06434 -3.428711,1.397601 -3.492601,3.264954 -0.06389,1.867354 1.395808,3.433083 3.261031,3.497421 1.342006,0.0464 3.098619,-0.67913 4.000463,-1.785531 l -0.09236,0.573545 -0.28369,1.675125 a 69.786556,69.786556 0 0 1 -0.629587,3.134038 c -0.193572,0.853759 -0.350717,1.4217 -0.350717,1.4217 l 3.427366,0.11825 c 0,0 -0.117802,-0.577916 -0.252193,-1.443109 a 67.751522,67.751522 0 0 1 -0.41371,-3.169007 c -0.0714,-0.576235 -0.116009,-1.151908 -0.168577,-1.69093 l -0.04069,-0.431756 c 0.859924,1.087123 2.47329,1.861189 3.757123,1.905463 1.864327,0.06434 3.427816,-1.398049 3.491703,-3.265402 0.06389,-1.867354 -1.395358,-3.433532 -3.260581,-3.497869"
     fill="#ffffff"
     id="path69"
     style="stroke-width:0.112086" />
  <path
     d="m 19.799542,7.4908156 -0.596074,0.014684 -0.59428,0.044386 -0.591366,0.073192 -0.587443,0.1025587 -0.581502,0.131365 -0.574217,0.1598347 -0.566034,0.1878559 -0.556171,0.2154294 -0.544626,0.2430025 -0.532185,0.2692306 -0.518958,0.295459 -0.50349,0.3204538 -0.487238,0.3450009 -0.469641,0.3687629 -0.451594,0.39118 -0.431532,0.41315 -0.410907,0.433773 -0.38905,0.45406 -0.366746,0.472106 -0.3432072,0.489816 -0.3187728,0.506181 -0.2940015,0.521648 -0.2677738,0.534987 -0.2416575,0.54754 -0.2141962,0.559197 -0.1868475,0.56906 -0.1589378,0.577243 -0.1306925,0.584529 -0.1019981,0.590581 -0.072856,0.594504 -0.044162,0.597531 -0.014572,0.599212 0.014572,0.598764 0.044162,0.597531 0.072856,0.594953 0.1019981,0.590133 0.1306925,0.584528 0.1589378,0.577692 0.1868475,0.568612 0.2141962,0.559197 0.2416575,0.54754 0.2677738,0.535435 0.2940015,0.5212 0.3187728,0.506181 0.3432072,0.489816 0.366746,0.472553 0.38905,0.453612 0.410907,0.433772 0.431532,0.41315 0.451594,0.391628 0.469641,0.368316 0.487238,0.345 0.50349,0.320456 0.518958,0.295456 0.532185,0.269232 0.544626,0.243003 0.556171,0.215765 0.566034,0.187856 0.574217,0.159835 0.581502,0.130915 0.587443,0.10256 0.591366,0.07364 0.59428,0.04394 0.596074,0.01469 0.595625,-0.01469 0.59428,-0.04394 0.591702,-0.07364 0.586994,-0.10256 0.581503,-0.130915 0.574665,-0.159835 0.565586,-0.188302 0.556171,-0.215432 0.544626,-0.243003 0.532633,-0.269228 0.51851,-0.295459 0.503491,-0.320456 0.487237,-0.345 0.470088,-0.368316 0.451259,-0.391628 0.431531,-0.413147 0.410906,-0.433775 0.3895,-0.453613 0.36641,-0.472553 0.343206,-0.489815 0.318775,-0.506181 0.294,-0.5212 0.267775,-0.535434 0.241656,-0.547541 0.214647,-0.559197 0.186847,-0.568612 0.158938,-0.577692 0.130244,-0.584529 0.101997,-0.590132 0.07331,-0.594953 0.04371,-0.597531 0.01456,-0.598763 -0.01456,-0.599212 -0.04371,-0.597531 -0.07331,-0.594504 -0.101997,-0.590581 -0.130244,-0.584529 -0.158938,-0.577243 -0.187297,-0.569061 -0.214197,-0.559197 -0.241656,-0.54754 -0.267775,-0.534987 -0.294,-0.521648 -0.318775,-0.506181 -0.343206,-0.489816 -0.36641,-0.472106 -0.3895,-0.454061 L 28.385443,11.066249 27.953912,10.6531 27.502653,10.261919 27.032565,9.8931564 26.545328,9.5481558 26.041837,9.2277017 25.523327,8.932243 24.990694,8.6630124 24.446068,8.4200099 23.889897,8.2045805 23.324311,8.0167243 22.749646,7.8568896 22.168143,7.7255246 21.581149,7.6229662 20.989447,7.549774 20.395167,7.5053878 19.799542,7.4907034 Z m 0,0"
     fill="#2d2d2d"
     id="insideCircle"
     style="stroke-width:0.112086" />
  <path
     id="firstBlock"
     style="display:inline;fill:#ffffff;fill-opacity:1;stroke-width:0.112086"
     d="m 15.065476,25.537563 -0.409786,2.82961 h 7.508867 l -0.410011,-2.82961 z" />
  <path
     style="display:inline;fill:#ffffff;fill-opacity:1;stroke-width:0.112086"
     d="m 15.17263,24.798692 h 6.474762 l -0.320903,-2.216614 h -5.832396 z"
     id="secondBlock" />
  <path
     style="display:inline;fill:#ffffff;fill-opacity:1;stroke-width:0.112086"
     d="m 15.921925,19.627154 -0.320902,2.216614 h 5.618425 l -0.321463,-2.216614 z"
     id="thirdBlock" />
  <path
     style="fill:#ffffff;fill-opacity:1;stroke-width:0.112086"
     d="m 16.51105,15.563924 -0.481634,3.324919 h 4.761639 l -0.481634,-3.324919 z"
     id="forthBlock" />
  <path
     d="m 21.153653,10.795672 a 2.9586228,2.9586228 0 0 0 -5.486611,0 z m 0,0"
     id="fiftBlock"
     style="display:inline;fill:#ffffff;fill-opacity:1;stroke-width:0.148007" />
  <path
     style="opacity:1;fill:none;fill-opacity:1;stroke:#45ca63;stroke-width:1.92508;stroke-linecap:round;stroke-linejoin:miter;stroke-miterlimit:4;stroke-dasharray:none;stroke-opacity:1"
     d="m 13.820312,13.173017 c 1.537821,-0.02096 3.075753,-0.03643 4.613798,-0.04629 1.19932,-0.0076 2.402339,-0.01166 3.593478,0.129235 1.295042,0.15311 2.625054,0.506629 3.593478,1.38034 0.36271,0.327179 0.668033,0.725757 0.844455,1.181274 0.270128,0.697287 0.218682,1.49859 -0.07375,2.186799 -0.292544,0.688208 -0.812848,1.266124 -1.427527,1.69205 a 4.6530273,4.6530273 0 0 1 -0.544178,0.325162 c -1.024466,0.519631 -2.204396,0.622077 -3.351821,0.676663 -0.762297,0.03632 -1.52549,0.0556 -2.288796,0.05795"
     id="greenLight" />
  <ellipse
     style="fill:none;fill-opacity:1;fill-rule:evenodd;stroke:#ffffff;stroke-width:0.525463;stroke-linecap:round;stroke-opacity:1;paint-order:stroke markers fill"
     id="whiteInnerRing"
     cx="19.867355"
     cy="19.695526"
     ry="12.416779"
     rx="12.362305" />
  <ellipse
     style="fill:none;fill-opacity:1;fill-rule:evenodd;stroke:#ffffff;stroke-width:0.780394;stroke-linecap:round;stroke-opacity:1;paint-order:stroke markers fill"
     id="whiteOuterRing"
     cx="19.750002"
     cy="19.830927"
     ry="18.440729"
     rx="18.359804" />
</svg>
